<svg width="74" height="47" viewBox="0 0 74 47" fill="none" xmlns="http://www.w3.org/2000/svg">
<path d="M0.44 35.048C0.44 34.28 0.504 33.464 0.632 32.6C0.792 31.704 1.016 30.76 1.304 29.768C1.624 28.744 2.008 27.672 2.456 26.552L5.912 27.896C5.592 28.792 5.304 29.64 5.048 30.44C4.824 31.24 4.648 31.992 4.52 32.696C4.424 33.4 4.376 34.072 4.376 34.712C4.376 36.376 4.808 37.752 5.672 38.84C6.536 39.928 7.72 40.744 9.224 41.288C10.728 41.832 12.424 42.104 14.312 42.104C16.456 42.104 18.248 41.816 19.688 41.24C21.16 40.664 22.328 39.896 23.192 38.936C24.056 38.008 24.664 36.968 25.016 35.816C25.4 34.664 25.592 33.528 25.592 32.408C25.592 31.192 25.352 29.72 24.872 27.992C24.424 26.264 23.576 24.12 22.328 21.56L25.928 19.736C26.568 20.952 27.144 22.232 27.656 23.576C28.2 24.888 28.632 26.248 28.952 27.656C29.304 29.032 29.48 30.44 29.48 31.88C29.48 33.128 29.32 34.408 29 35.72C28.712 37.032 28.216 38.296 27.512 39.512C26.808 40.76 25.864 41.864 24.68 42.824C23.528 43.816 22.088 44.6 20.36 45.176C18.664 45.752 16.632 46.04 14.264 46.04C12.408 46.04 10.632 45.816 8.936 45.368C7.272 44.952 5.8 44.296 4.52 43.4C3.272 42.504 2.28 41.368 1.544 39.992C0.808 38.616 0.44 36.968 0.44 35.048ZM14.936 15.896C14.264 15.896 13.688 15.672 13.208 15.224C12.76 14.744 12.536 14.184 12.536 13.544C12.536 12.904 12.76 12.344 13.208 11.864C13.688 11.384 14.264 11.144 14.936 11.144C15.576 11.144 16.12 11.384 16.568 11.864C17.048 12.344 17.288 12.904 17.288 13.544C17.288 14.184 17.048 14.744 16.568 15.224C16.12 15.672 15.576 15.896 14.936 15.896ZM45.8274 35.24C43.2674 35.24 41.2994 34.952 39.9234 34.376C38.5794 33.8 37.6514 32.904 37.1394 31.688C36.6274 30.472 36.3394 28.904 36.2754 26.984L35.3154 0.727998H39.2514L40.2114 25.448C40.2754 27.016 40.4194 28.232 40.6434 29.096C40.8994 29.928 41.4434 30.504 42.2754 30.824C43.1394 31.144 44.4834 31.304 46.3074 31.304C46.9794 31.304 47.4594 31.496 47.7474 31.88C48.0674 32.232 48.2274 32.664 48.2274 33.176C48.2274 33.688 48.0034 34.168 47.5554 34.616C47.1074 35.032 46.5314 35.24 45.8274 35.24ZM45.8281 35.24L46.3081 31.304C47.8761 31.304 49.1241 31.208 50.0521 31.016C50.9801 30.824 51.6521 30.44 52.0681 29.864C52.4841 29.256 52.6921 28.36 52.6921 27.176C52.6921 26.376 52.5641 25.432 52.3081 24.344C52.0521 23.224 51.7161 22.04 51.3001 20.792C50.8841 19.544 50.4361 18.312 49.9561 17.096L53.8441 15.656C54.2601 16.68 54.6441 17.848 54.9961 19.16C55.3801 20.472 55.7001 21.768 55.9561 23.048C56.2121 24.328 56.3401 25.448 56.3401 26.408C56.3401 27.688 56.1961 28.824 55.9081 29.816C55.6521 30.776 55.2521 31.608 54.7081 32.312C54.1641 32.984 53.4601 33.544 52.5961 33.992C51.7641 34.408 50.7881 34.728 49.6681 34.952C48.5481 35.144 47.2681 35.24 45.8281 35.24ZM50.9641 44.168C50.2921 44.168 49.7161 43.928 49.2361 43.448C48.7881 43 48.5641 42.456 48.5641 41.816C48.5641 41.176 48.7881 40.616 49.2361 40.136C49.7161 39.656 50.2921 39.416 50.9641 39.416C51.6041 39.416 52.1481 39.656 52.5961 40.136C53.0761 40.616 53.3161 41.176 53.3161 41.816C53.3161 42.456 53.0761 43 52.5961 43.448C52.1481 43.928 51.6041 44.168 50.9641 44.168ZM58.9108 46.04L57.5187 42.392C60.7508 41.368 63.2308 40.136 64.9588 38.696C66.7188 37.288 67.9188 35.816 68.5588 34.28C69.2308 32.744 69.5668 31.272 69.5668 29.864C69.5668 28.968 69.4708 28.104 69.2788 27.272C69.0868 26.44 68.7508 25.496 68.2708 24.44C67.7908 23.384 67.1188 22.072 66.2548 20.504L69.7588 18.728C70.9748 20.808 71.8388 22.776 72.3508 24.632C72.8948 26.488 73.1668 28.12 73.1668 29.528C73.1668 31.544 72.8308 33.368 72.1588 35C71.5188 36.632 70.6548 38.072 69.5668 39.32C68.5108 40.6 67.3428 41.688 66.0628 42.584C64.8148 43.48 63.5508 44.216 62.2708 44.792C61.0228 45.368 59.9028 45.784 58.9108 46.04ZM67.2148 13.208C66.5428 13.208 65.9668 12.984 65.4868 12.536C65.0388 12.056 64.8148 11.496 64.8148 10.856C64.8148 10.216 65.0388 9.656 65.4868 9.176C65.9668 8.696 66.5428 8.456 67.2148 8.456C67.8548 8.456 68.3988 8.696 68.8468 9.176C69.3268 9.656 69.5668 10.216 69.5668 10.856C69.5668 11.496 69.3268 12.056 68.8468 12.536C68.3988 12.984 67.8548 13.208 67.2148 13.208Z" fill="black"/>
</svg>
